<?xml version="1.0" encoding="utf-8"?>
<!-- Generator: Adobe Illustrator 16.0.0, SVG Export Plug-In . SVG Version: 6.00 Build 0)  -->
<svg version="1.2" baseProfile="tiny" id="Art" xmlns="http://www.w3.org/2000/svg" xmlns:xlink="http://www.w3.org/1999/xlink"
	 x="0px" y="0px" width="24px" height="24px" viewBox="0 0 24 24" xml:space="preserve">
<path fill="#333331" d="M24,12.101c0,1.049-0.851,1.9-1.9,1.9H7.9C6.851,14,6,13.15,6,12.101V3.9C6,2.851,6.851,2,7.9,2h14.2
	C23.15,2,24,2.851,24,3.9V12.101z"/>
<path fill="#333331" d="M20.75,18.417c-0.091,0-0.235-0.068-0.36-0.193l-5.599-5.586c-0.152-0.153-0.229-0.349-0.19-0.44
	C14.638,12.105,14.784,12,15,12h5c0.496,0,1,0.504,1,1v5C21,18.098,20.936,18.417,20.75,18.417z"/>
<path fill="#333331" d="M2,18c-1.048,0-2-0.952-2-2V8c0-1.048,0.952-2,2-2h3v7c0,1.158,0.842,2,2,2h7.75l2.376,2.517
	C16.793,17.768,16.407,18,16,18H2z"/>
<path fill="#333331" d="M3.251,22.417C3.065,22.417,3,22.098,3,22v-5c0-0.496,0.504-1,1-1h5c0.217,0,0.368,0.104,0.406,0.196
	s-0.031,0.263-0.184,0.415L3.612,22.21C3.487,22.335,3.342,22.417,3.251,22.417L3.251,22.417z"/>
<rect fill="none" width="24" height="24"/>
</svg>
