<?xml version="1.0" encoding="UTF-8" standalone="no"?>
<svg width="326px" height="139px" viewBox="0 0 326 139" version="1.1" xmlns="http://www.w3.org/2000/svg" xmlns:xlink="http://www.w3.org/1999/xlink" xmlns:sketch="http://www.bohemiancoding.com/sketch/ns">
    <!-- Generator: Sketch 3.2.2 (9983) - http://www.bohemiancoding.com/sketch -->
    <title>group-medium + Group</title>
    <desc>Created with Sketch.</desc>
    <defs></defs>
    <g id="Page-1" stroke="none" stroke-width="1" fill="none" fill-rule="evenodd" sketch:type="MSPage">
        <g id="group-medium-+-Group" sketch:type="MSLayerGroup" transform="translate(1.000000, 1.000000)">
            <g id="group-medium" transform="translate(115.000000, 86.000000)" sketch:type="MSShapeGroup">
                <path d="M16.7647059,46.3655172 C8.02284314,46.3655172 1.93166667,45.036 1.93166667,43.8442759 L1.96147059,43.4644138 C2.01176471,42.7791724 2.06392157,42.0697241 2.23901961,41.3956552 C2.31911765,41.0958621 2.40480392,40.7122759 2.49980392,40.2933103 C2.74382353,39.2002759 3.04931373,37.8409655 3.44235294,37.1706207 C4.16882353,35.9267586 5.02382353,35.4146897 6.34823529,34.9026207 C6.72078431,34.7555172 7.0504902,34.5525517 7.38019608,34.3514483 C7.63166667,34.1968966 7.88313725,34.0423448 8.15323529,33.9194483 C8.82568627,33.885931 9.23735294,33.7481379 9.87627451,33.453931 C10.1445098,33.3347586 10.4071569,33.3254483 10.7126471,33.3161379 C10.8579412,33.3105517 11.0069608,33.3068276 11.1634314,33.2882069 C11.8191176,33.2267586 11.9513725,32.9511724 12.1506863,32.5303448 L12.3071569,32.2156552 C12.9032353,31.1114483 12.9591176,29.0557241 12.6070588,28.0911724 L12.4952941,27.7727586 C12.247549,27.0577241 11.9085294,26.0764138 11.3143137,25.623931 C11.1895098,25.5289655 11.0665686,25.4470345 10.9454902,25.3669655 C10.4965686,25.0653103 10.1985294,24.867931 10.2115686,24.3186207 C10.0737255,24.1082069 10.062549,24.0225517 10.0476471,23.8642759 C10.0346078,23.732069 10.0178431,23.5663448 9.93215686,23.4006207 C9.88372549,23.3037931 9.785,23.2088276 9.68254902,23.1064138 C9.6154902,23.0393793 9.52421569,22.95 9.50186275,22.9053103 C9.36588235,22.6502069 9.26529412,22.4807586 9.19078431,22.3541379 C8.98960784,22.0133793 8.98960784,22.0133793 8.99705882,21.3951724 L9.00078431,17.8218621 C9.10137255,17.5909655 9.22803922,17.1906207 9.34352941,16.8237931 C9.44039216,16.5184138 9.52794118,16.2372414 9.595,16.065931 L9.60803922,15.255931 C10.1817647,14.0716552 12.1022549,12.2747586 13.4676471,11.7068276 C13.5384314,11.6788966 13.6259804,11.6658621 13.7470588,11.6658621 C13.8420588,11.6658621 13.9407843,11.6733103 14.0413725,11.6807586 C14.1568627,11.690069 14.2723529,11.6993793 14.3859804,11.6993793 C14.5629412,11.6993793 14.7063725,11.6770345 14.834902,11.6323448 L15.1515686,11.5075862 C15.3788235,11.4144828 15.5166667,11.3586207 15.7010784,11.3586207 C15.8463725,11.3586207 16.0233333,11.3921379 16.2766667,11.4684828 L18.4802941,11.394 C18.6479412,11.4163448 18.7541176,11.4982759 18.8658824,11.5876552 C18.9701961,11.6695862 19.0763725,11.7533793 19.2030392,11.7962069 L20.0673529,11.7254483 C20.1008824,11.7496552 21.075098,12.176069 21.2446078,12.2784828 C22.5634314,13.068 23.3271569,14.8071724 23.9996078,16.3415172 L24.3628431,17.1571034 C24.5733333,17.6114483 24.5267647,18.3935172 24.4839216,19.1476552 C24.4466667,19.7751724 24.4094118,20.4231724 24.5193137,20.9128966 C24.5770588,21.1624138 24.6552941,21.2555172 24.7540196,21.3076552 L24.7521569,21.3076552 C24.6906863,21.3076552 24.6403922,21.5068966 24.612451,21.6186207 C24.4932353,22.0953103 24.32,22.4863448 24.1560784,22.8587586 C23.8971569,23.4471724 23.6512745,24.0057931 23.6494118,24.7785517 C23.6102941,24.7971724 23.5693137,24.8157931 23.5227451,24.8344138 C23.3029412,24.9312414 23.0551961,25.0429655 22.9303922,25.1770345 C22.7143137,25.5084828 22.5932353,25.8473793 22.4777451,26.1751034 C22.3566667,26.5177241 22.2430392,26.8417241 22.054902,27.0968276 C21.9114706,27.2923448 21.7419608,27.4729655 21.572451,27.6535862 C21.3656863,27.8733103 21.1589216,28.0930345 21.0043137,28.3313793 C20.7919608,28.6442069 20.8888235,29.3089655 20.9838235,29.9513793 C21.0341176,30.294 21.0806863,30.6161379 21.0620588,30.7874483 C20.9856863,31.6831034 21.075098,32.6737241 22.2970588,33.2509655 C22.8707843,33.5153793 23.4873529,33.6308276 24.0815686,33.7406897 C24.422451,33.804 24.7633333,33.8673103 25.0930392,33.9585517 C25.7543137,34.1373103 26.5068627,34.3402759 27.2035294,34.6903448 C27.5052941,34.8337241 27.8312745,34.9398621 28.1609804,35.0441379 C28.1963725,35.0553103 28.2317647,35.0664828 28.2671569,35.0776552 C26.1417647,36.0738621 24.4783333,38.2301379 24.1728431,40.3268276 L23.3252941,46.0936552 C21.2595098,46.2742759 19.0521569,46.3655172 16.7647059,46.3655172 L16.7647059,46.3655172 Z" id="Shape" fill="#333331"></path>
                <path d="M77.3039216,46.3655172 C74.6327451,46.3655172 72.1068627,46.2444828 69.7896078,46.0024138 C69.5157843,44.2092414 69.1190196,41.6805517 68.8992157,40.3007586 C68.5657843,38.0662759 66.6806863,35.7610345 64.512451,34.9417241 L64.212549,34.8281379 C64.5012745,34.5730345 64.7601961,34.3961379 64.9818627,34.2974483 C65.1904902,34.2024828 65.6245098,34.0386207 66.1814706,33.8282069 C69.1693137,32.697931 72.3918627,31.4131034 72.8165686,30.4727586 C73.3772549,29.2363448 72.8333333,26.7002069 72.8091176,26.5922069 C72.2,25.6481379 71.6951961,24.596069 71.2835294,23.4062069 L71.2332353,23.2628276 C71.2332353,23.2628276 71.0711765,23.2833103 71.0655882,23.2833103 C70.2310784,23.2833103 69.4803922,22.1176552 69.2922549,21.0693103 C69.0780392,19.9036552 69.2289216,19.4232414 69.3947059,19.2258621 C69.4990196,19.1011034 69.6480392,19.0396552 69.8473529,19.0396552 L70.0801961,19.0750345 L70.219902,18.8590345 C70.219902,18.8590345 70.095098,17.3731034 69.927451,16.3526897 C69.9162745,16.3024138 69.0836275,12.8277931 71.3915686,11.7701379 C71.4381373,11.7384828 71.8442157,11.3995862 72.4328431,11.3995862 C72.5669608,11.3995862 72.7048039,11.4182069 72.8407843,11.4535862 L73.0009804,11.4964138 L73.0605882,11.3418621 C73.0922549,11.2673793 73.815,9.49841379 76.3297059,9.49841379 C76.577451,9.49841379 76.840098,9.51517241 77.1213725,9.55241379 C77.1753922,9.56172414 78.674902,9.83731034 79.9564706,9.83731034 C80.2619608,9.84848276 81.1355882,9.94717241 81.429902,10.2637241 C81.5062745,10.3214483 82.5419608,11.0141379 83.6316667,11.0141379 C83.6707843,10.9936552 83.6987255,10.9843448 83.7136275,10.9843448 C83.7490196,10.9843448 83.7061765,11.0383448 83.5981373,11.1295862 L83.41,11.2841379 L83.6037255,11.4256552 C83.6130392,11.4312414 84.4959804,12.0848276 84.6487255,13.0065517 C84.6785294,13.0828966 84.9262745,13.5484138 85.5577451,13.6862069 L85.4720588,13.7364828 L85.4143137,14.0213793 C85.412451,14.0418621 85.3062745,16.0137931 84.3935294,18.818069 L84.2966667,19.1104138 L84.6002941,19.0582759 C84.659902,19.0545517 84.7101961,19.0526897 84.7530392,19.0526897 C84.9020588,19.0526897 84.9709804,19.0731724 85.0417647,19.1066897 C85.1553922,19.1793103 85.2094118,19.2314483 85.2466667,19.2947586 C85.3882353,19.5256552 85.5055882,20.0116552 85.3081373,21.0674483 C85.2597059,21.3467586 85.1665686,21.6409655 85.0380392,21.9202759 C84.9430392,22.1251034 84.8648039,22.2666207 84.7791176,22.4006897 C84.6133333,22.6502069 84.5071569,22.7842759 84.3916667,22.8997241 C84.2556863,23.0188966 84.1513725,23.0933793 84.0396078,23.1566897 C83.7993137,23.2684138 83.6894118,23.2963448 83.585098,23.2963448 L83.4304902,23.2702759 L83.3168627,23.4062069 C82.9051961,24.5942069 82.4003922,25.6444138 81.8136275,26.5288966 C81.7633333,26.7002069 81.225,29.2363448 81.7838235,30.4727586 C82.2085294,31.4112414 85.4310784,32.697931 88.4189216,33.8282069 C88.9758824,34.0386207 89.4080392,34.2024828 89.6185294,34.2974483 C90.5629412,34.7182759 91.8631373,36.1967586 92.0345098,37.3233103 L92.9398039,43.3173103 C92.9547059,44.8051034 87.4689216,46.3655172 77.3039216,46.3655172 L77.3039216,46.3655172 Z" id="Shape" fill="#333331"></path>
                <path d="M46.5686275,51.9517241 C33.7194118,51.9517241 25.087451,50.0114483 25.087451,48.1996552 L26.2032353,40.6173103 C26.4230392,39.1034483 27.8070588,37.4164138 29.2860784,36.855931 L40.5109804,32.6029655 L40.5109804,32.2994483 L40.3358824,32.2361379 C31.9330392,31.7464138 30.4447059,25.7170345 30.217451,24.3614483 C30.4763725,24.4228966 30.8936275,24.4955172 31.3853922,24.4955172 C32.2180392,24.4955172 33.3990196,24.2757931 34.287549,23.2293103 C35.5504902,21.7433793 35.8727451,19.0377931 35.2412745,15.1870345 C35.1369608,14.5576552 35.1164706,13.9375862 35.1723529,13.2337241 C35.1127451,11.0085517 35.9640196,8.88765517 37.5697059,7.23786207 C39.6615686,5.09275862 42.8561765,3.91034483 46.5686275,3.91034483 C50.2773529,3.91034483 53.4719608,5.09089655 55.5619608,7.236 C57.1676471,8.88393103 58.0189216,11.0066897 57.9630392,13.2113793 L57.9537255,13.5353793 C57.942549,14.0437241 57.9313725,14.5762759 57.8363725,15.1684138 C57.204902,19.0173103 57.5252941,21.7247586 58.7882353,23.2106897 C59.6786275,24.2571724 60.8577451,24.4768966 61.6922549,24.4768966 C62.1877451,24.4768966 62.605,24.4024138 62.8657843,24.3409655 C62.6571569,25.7133103 61.2563725,31.7203448 52.7417647,32.2156552 L52.5666667,32.2249655 L52.5666667,32.5284828 L52.6858824,32.6476552 L63.7878431,36.854069 C65.2631373,37.4126897 66.6490196,39.0997241 66.8762745,40.6154483 C67.1966667,42.6562759 68.0330392,47.9948276 68.0498039,48.2071034 C68.0498039,50.0114483 59.4178431,51.9517241 46.5686275,51.9517241 L46.5686275,51.9517241 Z" id="Shape" fill="#333331"></path>
                <rect id="Rectangle-path" x="0" y="0" width="95" height="54"></rect>
            </g>
            <g id="Group" sketch:type="MSShapeGroup">
                <g id="image-2xl-+-Oval-81">
                    <circle id="Oval-81" stroke="#333331" fill="#FFFFFF" cx="32" cy="32" r="32"></circle>
                    <g id="image-2xl" transform="translate(14.000000, 18.000000)">
                        <g id="Group" transform="translate(5.142857, 2.250000)">
                            <ellipse id="Oval" fill="#FFFFFF" cx="15.7959184" cy="13.125" rx="9.91836735" ry="10.125"></ellipse>
                            <path d="M1.83673469,4.42425 C0.864734694,4.42425 0.0734693878,3.6165 0.0734693878,2.62425 L0.0734693878,1.87425 C0.0734693878,0.882 0.864734694,0.07425 1.83673469,0.07425 L3.30612245,0.07425 C4.27812245,0.07425 5.06938776,0.882 5.06938776,1.87425 L5.06938776,2.62425 C5.06938776,3.6165 4.27812245,4.42425 3.30612245,4.42425 L1.83673469,4.42425 L1.83673469,4.42425 Z" id="Shape" fill="#333331"></path>
                        </g>
                        <g id="Group" transform="translate(0.734694, 0.750000)" fill="#333331">
                            <path d="M20.1982041,8.04675 C16.6496327,8.04675 13.761551,10.99275 13.761551,14.61825 C13.761551,18.24225 16.6496327,21.1875 20.1982041,21.1875 C23.7497143,21.1875 26.6355918,18.24225 26.6355918,14.61825 C26.6355918,10.99275 23.7497143,8.04675 20.1982041,8.04675 L20.1982041,8.04675 Z M19.6141224,14.02425 C18.4893061,15.17325 16.9692245,15.48375 16.2183673,14.7165 C15.4675102,13.95075 15.7702041,12.399 16.8979592,11.25 C18.0235102,10.0995 19.5450612,9.7905 20.294449,10.55625 C21.0453061,11.322 20.7396735,12.87375 19.6141224,14.02425 L19.6141224,14.02425 Z M23.6982857,18.19125 C22.9481633,18.957 21.9519184,19.18275 21.4787755,18.7005 C21.0056327,18.216 21.2253061,17.2005 21.976898,16.43475 C22.7270204,15.6675 23.7225306,15.4395 24.1956735,15.9255 C24.6717551,16.413 24.4476735,17.4225 23.6982857,18.19125 L23.6982857,18.19125 Z" id="Shape"></path>
                            <path d="M4.80416327,25.425 C2.196,25.425 0.0734693878,23.25825 0.0734693878,20.59575 L0.0734693878,8.8275 C0.0734693878,6.165 2.196,3.99825 4.80416327,3.99825 L11.9145306,3.99825 L11.935102,3.95925 C12.2032653,3.465 12.5595918,2.97825 12.9379592,2.58975 L14.0635102,1.44 C14.8018776,0.687 16.2506939,0.075 17.2939592,0.075 L23.0576327,0.075 C24.1001633,0.075 25.5489796,0.687 26.2873469,1.43925 L27.412898,2.58975 C27.7868571,2.9715 28.1439184,3.45825 28.4179592,3.95925 L28.4385306,3.9975 L29.7257143,3.9975 C32.3346122,3.9975 34.4564082,6.16425 34.4564082,8.82675 L34.4564082,20.595 C34.4564082,23.25825 32.3338776,25.42425 29.7257143,25.42425 L4.80416327,25.42425 L4.80416327,25.425 Z M20.1982041,5.42175 C15.2309388,5.42175 11.1901224,9.5475 11.1901224,14.61825 C11.1901224,19.689 15.2309388,23.814 20.1982041,23.814 C25.1662041,23.814 29.2070204,19.689 29.2070204,14.61825 C29.2070204,9.5475 25.1662041,5.42175 20.1982041,5.42175 L20.1982041,5.42175 Z" id="Shape"></path>
                        </g>
                        <rect id="Rectangle-path" x="0" y="0" width="36" height="27"></rect>
                    </g>
                </g>
                <g id="memories-2xl-+-Oval-82" transform="translate(260.000000, 0.000000)">
                    <circle id="Oval-82" stroke="#333331" fill="#FFFFFF" cx="32" cy="32" r="32"></circle>
                    <g id="memories-2xl" transform="translate(10.000000, 17.000000)">
                        <g id="Group" transform="translate(0.626866, 0.644444)" fill="#333331">
                            <path d="M24.6991343,22.4911111 L24.644597,22.1224889 C24.583791,21.6804 24.2051642,21.1880444 23.7995821,21.0237111 L21.1654925,19.9565111 C23.1432537,19.4267778 23.6058806,18.1063111 23.6253134,18.0496 L23.6497612,17.9761333 L23.5751642,17.9645333 C23.5701493,17.9638889 23.0573731,17.8801111 22.6950448,17.3722889 C22.3552836,16.8960444 22.2512239,16.211 22.386,15.3371333 C22.414209,15.1624889 22.4204776,14.9872 22.4060597,14.7867778 C22.4217313,14.1532889 22.1841493,13.5423556 21.7390746,13.0725556 C21.1937015,12.4970667 20.3743881,12.18 19.4328358,12.18 C18.4900299,12.18 17.6700896,12.4970667 17.1234627,13.0732 C16.6783881,13.543 16.4420597,14.1539333 16.4577313,14.7932222 C16.4445672,14.9865556 16.450209,15.1612 16.4771642,15.3364889 C16.613194,16.2116444 16.5085075,16.8973333 16.1674925,17.3742222 C15.8039104,17.8826889 15.2942687,17.9638889 15.2892537,17.9645333 L15.2159104,17.9754889 L15.2384776,18.0483111 C15.2566567,18.1063111 15.7004776,19.4544889 17.7214925,19.9732667 L15.0479104,21.0237111 C14.6423284,21.1880444 14.2643284,21.6810444 14.2047761,22.1231333 L14.1546269,22.4911111 L11.9731343,22.4911111 L11.9731343,10.3755556 L26.8925373,10.3755556 L26.8925373,22.4911111 L24.6991343,22.4911111 L24.6991343,22.4911111 Z" id="Shape"></path>
                            <path d="M2.20907463,27.6466667 C1.97525373,27.6466667 1.76274627,27.5519333 1.59537313,27.3721333 C1.42737313,27.1923333 1.33835821,26.9648444 1.33835821,26.7141556 L1.33835821,23.8663556 L1.30074627,23.8496 C0.608059701,23.5376889 0.160477612,22.8358889 0.160477612,22.0619111 C0.160477612,21.2872889 0.608059701,20.5848444 1.30074627,20.2735778 L1.33835821,20.2568222 L1.33835821,17.4103111 L1.30074627,17.3935556 C0.608059701,17.0816444 0.160477612,16.3798444 0.160477612,15.6058667 C0.160477612,14.8312444 0.608059701,14.1288 1.30074627,13.8175333 L1.33835821,13.8007778 L1.33835821,10.9542667 L1.30074627,10.9375111 C0.608059701,10.6262444 0.160477612,9.92444444 0.160477612,9.14982222 C0.160477612,8.3752 0.608059701,7.67275556 1.30074627,7.36148889 L1.33835821,7.34473333 L1.33835821,4.83011111 C1.33835821,4.45117778 1.41671642,3.99942222 1.53770149,3.67848889 C1.85426866,2.76531111 2.5801791,1.9372 3.696,1.21542222 C4.82749254,0.483333333 6.13074627,0.112133333 7.56940299,0.112133333 L39.834806,0.112133333 C40.0648657,0.112133333 40.2673433,0.204933333 40.436597,0.387311111 C40.5983284,0.559377778 40.6835821,0.787511111 40.6835821,1.04722222 L40.6835821,22.8107556 C40.6835821,23.0653111 40.600209,23.2928 40.4353433,23.4861333 C40.2729851,23.6762444 40.0705075,23.7722667 39.8354328,23.7722667 L38.336597,23.7722667 L38.336597,3.71522222 C38.336597,2.91482222 38.0125075,2.52557778 37.3455224,2.52557778 L9.1779403,2.52557778 C8.08468657,2.52557778 7.10991045,2.74211111 6.27868657,3.16873333 C5.51391045,3.5612 4.84191045,4.24946667 4.33602985,5.16006667 L4.28274627,5.25673333 L35.4931343,5.25673333 C35.732597,5.25673333 35.9281791,5.34502222 36.0761194,5.51837778 C36.2290746,5.69817778 36.306806,5.91664444 36.306806,6.16862222 L36.306806,26.7141556 C36.306806,26.9693556 36.227194,27.1974889 36.0761194,27.3740667 C35.9256716,27.5525778 35.7238209,27.6466667 35.4931343,27.6466667 L2.20907463,27.6466667 L2.20907463,27.6466667 Z M11.475403,8.98226667 C11.0008657,8.98226667 10.6147164,9.37924444 10.6147164,9.86708889 L10.6147164,22.9905556 C10.6147164,23.4784 11.0008657,23.8753778 11.475403,23.8753778 L27.4322687,23.8753778 C27.906806,23.8753778 28.2929552,23.4784 28.2929552,22.9905556 L28.2929552,9.86708889 C28.2929552,9.37924444 27.906806,8.98226667 27.4322687,8.98226667 L11.475403,8.98226667 L11.475403,8.98226667 Z" id="Shape"></path>
                        </g>
                        <rect id="Rectangle-path" x="0" y="0" width="42" height="29"></rect>
                    </g>
                </g>
                <g id="audio-recording-large-+-Oval-83" transform="translate(172.000000, 0.000000)">
                    <circle id="Oval-83" stroke="#333331" fill="#FFFFFF" cx="32" cy="32" r="32"></circle>
                    <g id="audio-recording-large" transform="translate(22.000000, 15.000000)">
                        <g id="Audio_Recording__x28_2XL_x29_">
                            <g id="Group" fill="#333331">
                                <path d="M9.66758621,22.3276522 C7.02068966,22.3276522 4.79931034,20.1168696 4.25586207,18.0688696 L4.24206897,18.0173913 L4.08413793,18.0173913 C3.77655172,18.0173913 3.51724138,17.4942609 3.51724138,17.165913 L3.51724138,13.8733913 C3.51724138,13.5506087 3.77172414,13.2876522 4.08413793,13.2876522 L15.8924138,13.2876522 C16.2124138,13.2876522 16.4834483,13.5561739 16.4834483,13.8733913 L16.4834483,17.165913 C16.4834483,17.4866087 16.2075862,18.0173913 15.8924138,18.0173913 L15.7358621,18.0173913 L15.7213793,18.0688696 C15.1668966,20.1488696 12.9455172,22.3930435 10.322069,22.3930435 C10.3213793,22.3930435 9.66758621,22.3276522 9.66758621,22.3276522 L9.66758621,22.3276522 Z" id="Shape"></path>
                                <path d="M3.51724138,11.7565217 L3.51724138,6.24347826 C3.51724138,2.83895652 6.26137931,0.0695652174 9.63448276,0.0695652174 L10.3572414,0.0702608696 C13.7365517,0.0702608696 16.4834483,2.83895652 16.4834483,6.2413913 L16.4834483,11.7565217 L3.51724138,11.7565217 L3.51724138,11.7565217 Z M13.737931,8.40695652 C13.1324138,8.40695652 12.64,8.98156522 12.64,9.68834783 C12.64,10.3951304 13.1324138,10.9697391 13.737931,10.9697391 C14.3441379,10.9697391 14.8372414,10.3951304 14.8372414,9.68834783 C14.8372414,8.98156522 14.3441379,8.40695652 13.737931,8.40695652 L13.737931,8.40695652 Z M9.98758621,8.40695652 C9.2862069,8.40695652 8.71655172,8.98156522 8.71655172,9.68834783 C8.71655172,10.3951304 9.2862069,10.9697391 9.98758621,10.9697391 C10.6889655,10.9697391 11.2593103,10.3951304 11.2593103,9.68834783 C11.2593103,8.98156522 10.6889655,8.40695652 9.98758621,8.40695652 L9.98758621,8.40695652 Z M6.25517241,8.40695652 C5.64965517,8.40695652 5.15655172,8.98156522 5.15655172,9.68834783 C5.15655172,10.3951304 5.64965517,10.9697391 6.25517241,10.9697391 C6.86137931,10.9697391 7.35448276,10.3951304 7.35448276,9.68834783 C7.35448276,8.98156522 6.86137931,8.40695652 6.25517241,8.40695652 L6.25517241,8.40695652 Z M13.737931,4.80556522 C13.1324138,4.80556522 12.64,5.38086957 12.64,6.08834783 C12.64,6.79443478 13.1324138,7.36904348 13.737931,7.36904348 C14.3441379,7.36904348 14.8372414,6.79443478 14.8372414,6.08834783 C14.8372414,5.38086957 14.3441379,4.80556522 13.737931,4.80556522 L13.737931,4.80556522 Z M9.98758621,4.80556522 C9.2862069,4.80556522 8.71655172,5.38086957 8.71655172,6.08834783 C8.71655172,6.79443478 9.2862069,7.36904348 9.98758621,7.36904348 C10.6889655,7.36904348 11.2593103,6.79443478 11.2593103,6.08834783 C11.2593103,5.38086957 10.6889655,4.80556522 9.98758621,4.80556522 L9.98758621,4.80556522 Z M6.25517241,4.80556522 C5.64965517,4.80556522 5.15655172,5.38086957 5.15655172,6.08834783 C5.15655172,6.79443478 5.64965517,7.36904348 6.25517241,7.36904348 C6.86137931,7.36904348 7.35448276,6.79443478 7.35448276,6.08834783 C7.35448276,5.38086957 6.86137931,4.80556522 6.25517241,4.80556522 L6.25517241,4.80556522 Z M13.2234483,2.21773913 C12.7117241,2.21773913 12.2951724,2.63652174 12.2951724,3.152 C12.2951724,3.66817391 12.7117241,4.08765217 13.2234483,4.08765217 C13.7337931,4.08765217 14.1496552,3.66747826 14.1496552,3.152 C14.1496552,2.63721739 13.7337931,2.21773913 13.2234483,2.21773913 L13.2234483,2.21773913 Z M6.76965517,2.21565217 C6.25931034,2.21565217 5.84344828,2.63582609 5.84344828,3.15269565 C5.84344828,3.66886957 6.25931034,4.08834783 6.76965517,4.08834783 C7.28206897,4.08834783 7.69931034,3.66817391 7.69931034,3.15269565 C7.69931034,2.63582609 7.28275862,2.21565217 6.76965517,2.21565217 L6.76965517,2.21565217 Z M9.98758621,1.69878261 C9.38206897,1.69878261 8.88965517,2.19617391 8.88965517,2.80765217 C8.88965517,3.41913043 9.38206897,3.91652174 9.98758621,3.91652174 C10.5937931,3.91652174 11.0868966,3.41913043 11.0868966,2.80765217 C11.0868966,2.19617391 10.5937931,1.69878261 9.98758621,1.69878261 L9.98758621,1.69878261 Z" id="Shape"></path>
                                <path d="M2.06344828,31.2347826 C1.73034483,31.2347826 1.44827586,30.9572174 1.44827586,30.6288696 L1.44827586,30.4973913 C1.44827586,29.634087 2.16965517,28.5913043 3.0662069,28.5913043 L5.51448276,28.5913043 C6.66896552,28.5913043 7.46413793,27.7753043 8.01724138,26.0243478 L8.04,25.952 L7.9662069,25.936 C3.22827586,24.896 0.0448275862,20.6525217 0.0448275862,15.3773913 C0.0448275862,14.7589565 0.543448276,14.2553043 1.15586207,14.2553043 C1.76896552,14.2553043 2.26758621,14.7568696 2.26758621,15.373913 C2.26758621,20.3241739 5.58551724,24.0570435 9.9862069,24.0570435 C14.3875862,24.0570435 17.7055172,20.3186087 17.7055172,15.3606957 C17.7055172,14.7325217 18.2048276,14.221913 18.817931,14.221913 C19.4406897,14.221913 19.9289655,14.6984348 19.9289655,15.3071304 C19.9289655,20.72 16.7586207,25.0031304 12.0406897,25.965913 L11.9648276,25.9805217 L11.9889655,26.0542609 C12.5406897,27.7857391 13.3317241,28.592 14.4793103,28.592 L16.9303448,28.592 C17.8282759,28.592 18.5517241,29.6347826 18.5517241,30.498087 L18.5517241,30.6295652 C18.5517241,30.957913 18.2682759,31.2354783 17.9337931,31.2354783 L2.06344828,31.2354783 L2.06344828,31.2347826 Z" id="Shape"></path>
                            </g>
                            <rect id="Rectangle-path" x="0" y="0" width="20" height="32"></rect>
                        </g>
                    </g>
                </g>
                <g id="photos-and-stories-medium-+-Oval-84" transform="translate(86.000000, 0.000000)">
                    <circle id="Oval-84" stroke="#333331" fill="#FFFFFF" cx="32" cy="32" r="32"></circle>
                    <g id="photos-and-stories-medium" transform="translate(11.000000, 18.000000)">
                        <path d="M18.351,18.169 L18.297,16.957 C18.276,16.464 17.898,15.879 17.458,15.655 L14.266,14.033 L14.267,14.018 C16.839,13.693 17.525,12.1 17.525,12.1 C17.525,12.1 15.626,11.636 16.351,8.838 C16.408,8.616 16.427,8.414 16.432,8.223 C16.618,6.699 15.471,5.161 13.257,4.949 C11.045,4.738 9.629,6.03 9.519,7.56 C9.487,7.75 9.468,7.951 9.484,8.182 C9.663,11.067 7.71,11.161 7.71,11.161 C7.71,11.161 8.114,12.844 10.561,13.657 L10.559,13.678 L7.121,14.665 C6.647,14.801 6.164,15.304 6.048,15.784 C6.048,15.784 5.9,16.376 5.754,16.962 L18.351,18.169 L18.351,18.169 Z" id="Shape" fill="#333331"></path>
                        <path d="M21,25.9 C20.048,25.899 19.547,25.591 19.106,25.32 C18.784,25.122 18.505,24.951 18.127,24.951 L1.022,24.951 C0.514,24.951 0.1,24.501 0.1,23.947 C0.119,23.641 2.818,4.176 2.845,3.979 C2.895,3.615 3.227,3.318 3.586,3.318 L4.161,3.318 L4.661,0.149 C7.006,1.269 10.468,1.488 13.528,1.681 C17.485,1.931 20.902,2.146 20.902,4.113 L21.1,4.113 C21.1,2.147 24.517,1.931 28.474,1.681 C31.535,1.488 34.997,1.269 37.342,0.149 L37.839,3.318 L38.417,3.318 C38.767,3.318 39.105,3.621 39.157,3.979 C39.183,4.175 41.881,23.64 41.9,23.951 C41.9,24.501 41.486,24.951 40.977,24.951 L23.873,24.951 C23.494,24.951 23.216,25.122 22.893,25.32 C22.451,25.592 21.951,25.899 21,25.9 L21,25.9 L21,25.9 Z M3.671,19.636 L3.723,19.669 C5.233,20.612 8.724,20.86 12.1,21.101 C15.525,21.344 19.066,21.596 20.279,22.577 L20.441,22.708 L20.441,4.138 C19.228,2.832 15.944,2.67 12.468,2.5 C9.882,2.374 7.207,2.242 5.557,1.625 L5.435,1.579 L3.671,19.636 L3.671,19.636 Z M36.442,1.625 C34.794,2.243 32.119,2.374 29.532,2.5 C26.055,2.67 22.771,2.832 21.585,4.069 L21.558,22.707 L21.72,22.576 C22.935,21.596 26.476,21.344 29.901,21.1 C33.278,20.86 36.77,20.612 38.279,19.668 L38.332,19.635 L36.564,1.579 L36.442,1.625 L36.442,1.625 Z" id="Shape" fill="#333331"></path>
                        <g id="Group" transform="translate(24.000000, 5.000000)" stroke="#333331" stroke-width="1.33">
                            <path d="M8.367,12.745 C5.603,12.98 2.5,13.083 0.27,13.489" id="Shape"></path>
                            <path d="M11.344,9.318 C8.172,9.891 3.38,9.838 0.277,10.403" id="Shape"></path>
                            <path d="M11.007,6.306 C7.877,6.833 3.291,6.768 0.286,7.315" id="Shape"></path>
                            <path d="M10.669,3.294 C7.582,3.776 3.2,3.699 0.293,4.228" id="Shape"></path>
                            <path d="M10.332,0.283 C7.287,0.72 3.111,0.63 0.302,1.141" id="Shape"></path>
                        </g>
                        <rect id="Rectangle-path" x="0" y="0" width="42" height="26"></rect>
                    </g>
                </g>
            </g>
        </g>
    </g>
</svg>